<svg width="80" height="65" viewBox="0 0 80 65" fill="none" xmlns="http://www.w3.org/2000/svg">
<path d="M44.8657 19.9478C57.1857 19.9478 64.1807 27.8128 65.1957 37.3178H65.5057C73.4357 37.3178 79.8657 43.5028 79.8657 51.1328C79.8657 58.7628 73.4357 64.9478 65.5057 64.9478H24.2257C16.2957 64.9478 9.86573 58.7628 9.86573 51.1328C9.86573 43.5028 16.2957 37.3178 24.2257 37.3178H24.5357C25.5557 27.7478 32.5407 19.9478 44.8657 19.9478ZM8.88073 33.4478C9.07295 34.0021 9.06407 34.6064 8.85566 35.1549C8.64725 35.7033 8.25258 36.161 7.74073 36.4478L7.33073 36.6278L3.32573 38.0078C2.73469 38.2146 2.08756 38.1921 1.51232 37.9447C0.937083 37.6973 0.475625 37.2431 0.219212 36.6718C-0.0372006 36.1006 -0.0698954 35.4539 0.127594 34.8596C0.325083 34.2654 0.738375 33.7669 1.28573 33.4628L1.69573 33.2828L5.70573 31.9028C6.33232 31.6878 7.01864 31.7302 7.61394 32.0209C8.20925 32.3115 8.66486 32.8265 8.88073 33.4528M34.4657 12.4478C36.1257 13.2578 37.5907 14.3128 38.8307 15.5478C30.0207 17.3678 23.6807 23.2128 21.1157 31.3278L20.7907 32.4478L20.5607 33.3828L19.7307 33.5328C17.5126 33.9895 15.3953 34.8432 13.4807 36.0528C11.5481 33.0424 10.6528 29.4826 10.9314 25.9161C11.2099 22.3496 12.6469 18.9719 15.0235 16.298C17.4 13.6241 20.5857 11.8007 24.0949 11.1055C27.6041 10.4104 31.2443 10.8818 34.4607 12.4478M4.44573 13.2978L4.86573 13.4578L8.67573 15.3128C9.2374 15.5858 9.67654 16.0592 9.90672 16.6398C10.1369 17.2203 10.1415 17.866 9.91951 18.4497C9.69755 19.0335 9.26514 19.513 8.70738 19.794C8.14963 20.0749 7.50692 20.1369 6.90573 19.9678L6.48073 19.8078L2.67573 17.9528C2.11406 17.6798 1.67492 17.2064 1.44474 16.6258C1.21456 16.0453 1.21 15.3996 1.43196 14.8159C1.65392 14.2321 2.08632 13.7526 2.64408 13.4716C3.20184 13.1907 3.84455 13.1287 4.44573 13.2978ZM39.8107 1.4228C40.3372 1.67965 40.7567 2.11319 40.9961 2.64777C41.2355 3.18235 41.2796 3.78402 41.1207 4.3478L40.9607 4.7678L39.1057 8.5778C38.8327 9.13947 38.3593 9.57861 37.7788 9.8088C37.1982 10.039 36.5525 10.0435 35.9688 9.82158C35.3851 9.59962 34.9055 9.16721 34.6246 8.60945C34.3436 8.0517 34.2816 7.40899 34.4507 6.8078L34.6107 6.3828L36.4657 2.5728C36.6097 2.27692 36.8107 2.01237 37.0572 1.79434C37.3036 1.5763 37.5907 1.40907 37.902 1.30223C38.2132 1.19539 38.5425 1.15104 38.8709 1.17173C39.1993 1.19242 39.5154 1.27774 39.8107 1.4228ZM20.8657 1.2628L21.0507 1.6728L22.4307 5.6828C22.6336 6.27308 22.6083 6.91789 22.3599 7.49047C22.1114 8.06305 21.6578 8.52199 21.0881 8.77705C20.5184 9.03212 19.8739 9.06487 19.2814 8.86885C18.6888 8.67284 18.1909 8.26225 17.8857 7.7178L17.7007 7.3078L16.3257 3.3028C16.1261 2.71392 16.153 2.07175 16.4013 1.50167C16.6496 0.931581 17.1015 0.474494 17.6687 0.219634C18.2359 -0.0352267 18.8777 -0.0695662 19.4688 0.123319C20.06 0.316203 20.558 0.722467 20.8657 1.2628Z" fill="#FF3E00"/>
</svg>
