<svg width="100" height="100" viewBox="0 0 100 100" fill="none" xmlns="http://www.w3.org/2000/svg">
<path d="M50.4841 7.99873L61.8351 0.245605C62.5462 -0.240137 63.5231 0.0215815 63.896 0.797949L69.8497 13.188C69.9723 13.4431 70.169 13.6554 70.4142 13.7969C70.6593 13.9385 70.9415 14.0027 71.2237 13.9813L84.9306 12.9423C85.7894 12.8772 86.5044 13.5923 86.4394 14.4511L85.4003 28.1579C85.3789 28.4402 85.4432 28.7223 85.5847 28.9675C85.7263 29.2126 85.9385 29.4093 86.1936 29.5319L98.5837 35.4856C99.3601 35.8587 99.6218 36.8355 99.136 37.5466L91.3829 48.8976C91.2232 49.1313 91.1378 49.4078 91.1378 49.6908C91.1378 49.9739 91.2232 50.2504 91.3829 50.4841L99.136 61.8351C99.6218 62.5462 99.3601 63.5231 98.5837 63.896L86.1936 69.8497C85.9385 69.9723 85.7263 70.169 85.5847 70.4142C85.4432 70.6593 85.3789 70.9415 85.4003 71.2237L86.4394 84.9306C86.5044 85.7894 85.7894 86.5044 84.9306 86.4394L71.2237 85.4003C70.9415 85.3789 70.6593 85.4432 70.4142 85.5847C70.169 85.7263 69.9723 85.9385 69.8497 86.1936L63.896 98.5837C63.5229 99.3601 62.5462 99.6218 61.8351 99.136L50.4841 91.3829C50.2504 91.2232 49.9739 91.1378 49.6908 91.1378C49.4078 91.1378 49.1313 91.2232 48.8976 91.3829L37.5466 99.136C36.8354 99.6218 35.8585 99.3601 35.4856 98.5837L29.5319 86.1936C29.4093 85.9385 29.2126 85.7263 28.9675 85.5847C28.7223 85.4432 28.4402 85.3789 28.1579 85.4003L14.4511 86.4394C13.5923 86.5044 12.8772 85.7894 12.9423 84.9306L13.9813 71.2237C14.0027 70.9415 13.9385 70.6593 13.7969 70.4142C13.6554 70.169 13.4431 69.9723 13.188 69.8497L0.797753 63.896C0.0213861 63.5229 -0.240333 62.5462 0.24541 61.8351L7.99854 50.4841C8.15821 50.2504 8.24363 49.9739 8.24363 49.6908C8.24363 49.4078 8.15821 49.1313 7.99854 48.8976L0.245605 37.5464C-0.240137 36.8353 0.0215814 35.8583 0.797949 35.4855L13.188 29.5317C13.4431 29.4092 13.6554 29.2124 13.7969 28.9673C13.9385 28.7221 14.0027 28.44 13.9813 28.1577L12.9423 14.4509C12.8772 13.5921 13.5923 12.8771 14.4511 12.9421L28.1579 13.9812C28.4402 14.0025 28.7223 13.9383 28.9675 13.7967C29.2126 13.6552 29.4093 13.4429 29.5319 13.1878L35.4856 0.797753C35.8587 0.0213862 36.8354 -0.240333 37.5466 0.24541L48.8976 7.99853C49.1313 8.15826 49.4077 8.24374 49.6908 8.24377C49.9739 8.24381 50.2503 8.1584 50.4841 7.99873Z" fill="#FFC639"/>
<path d="M49.6907 87.6624C70.6619 87.6624 87.6624 70.6619 87.6624 49.6907C87.6624 28.7195 70.6619 11.719 49.6907 11.719C28.7195 11.719 11.719 28.7195 11.719 49.6907C11.719 70.6619 28.7195 87.6624 49.6907 87.6624Z" fill="#FFE564"/>
</svg>
