<svg width="85" height="61" viewBox="0 0 85 61" fill="none" xmlns="http://www.w3.org/2000/svg">
<path d="M78.7208 52.2109C80.2105 46.6546 80.4019 40.8301 79.2802 35.188C78.1586 29.546 75.7539 24.2376 72.2524 19.6736C68.7508 15.1096 64.2462 11.4123 59.087 8.86786C53.9279 6.32342 48.2525 5 42.5 5C36.7475 5 31.0721 6.32342 25.913 8.86786C20.7538 11.4123 16.2492 15.1096 12.7476 19.6736C9.24605 24.2376 6.84142 29.546 5.71977 35.188C4.59812 40.8301 4.78952 46.6546 6.27917 52.2109" stroke="#FF3E00" stroke-width="8.33333" stroke-linecap="round"/>
<path d="M45.692 44.9277C47.7211 47.886 46.292 52.3943 42.5003 54.9985C38.7086 57.6068 33.9878 57.3235 31.9586 54.3693C29.792 51.2193 22.317 33.5068 17.7795 22.5485C16.9253 20.486 19.4461 18.7527 21.0711 20.2902C29.6711 28.4568 43.5295 41.7777 45.692 44.9277Z" stroke="#FF3E00" stroke-width="8.33333"/>
<path d="M42.5001 5.00293V13.3363M15.9835 15.9863L21.8751 21.8779M69.0168 15.9863L63.1251 21.8779M78.721 52.2113L70.6751 50.0529M6.2793 52.2113L14.3251 50.0529" stroke="#FF3E00" stroke-width="8.33333" stroke-linecap="round"/>
</svg>
