<svg width="100" height="100" viewBox="0 0 100 100" fill="none" xmlns="http://www.w3.org/2000/svg">
<rect width="100" height="100" fill="white"/>
<path d="M66.5 41C66.5 45.5087 64.7089 49.8327 61.5208 53.0208C58.3327 56.2089 54.0087 58 49.5 58C44.9913 58 40.6673 56.2089 37.4792 53.0208C34.2911 49.8327 32.5 45.5087 32.5 41C32.5 36.4913 34.2911 32.1673 37.4792 28.9792C40.6673 25.7911 44.9913 24 49.5 24C54.0087 24 58.3327 25.7911 61.5208 28.9792C64.7089 32.1673 66.5 36.4913 66.5 41Z" fill="#FF3E00"/>
<path fill-rule="evenodd" clip-rule="evenodd" d="M47.766 91.966C25.0986 91.0565 7 72.3905 7 49.5C7 26.0272 26.0273 7 49.5 7C72.9728 7 92 26.0272 92 49.5C92 72.9727 72.9728 92 49.5 92C49.3059 92.0012 49.1118 92.0012 48.9178 92C48.5331 92 48.1485 91.9873 47.766 91.966ZM22.2278 76.3175C21.91 75.405 21.8018 74.4326 21.9113 73.4725C22.0208 72.5125 22.3451 71.5894 22.8601 70.7718C23.3751 69.9542 24.0677 69.2632 24.8864 68.7499C25.7051 68.2366 26.6288 67.9143 27.5891 67.8069C44.1556 65.973 54.9464 66.1387 71.4321 67.8451C72.3937 67.9453 73.3198 68.2635 74.1397 68.7756C74.9597 69.2878 75.6521 69.9802 76.164 70.8004C76.6759 71.6205 76.9939 72.5466 77.0938 73.5082C77.1937 74.4698 77.0728 75.4415 76.7404 76.3494C83.8059 69.2006 87.7627 59.5511 87.75 49.5C87.75 28.3754 70.6246 11.25 49.5 11.25C28.3754 11.25 11.25 28.3754 11.25 49.5C11.25 59.9465 15.4384 69.4155 22.2278 76.3175Z" fill="#FF3E00"/>
<path d="M73.3828 83.0674C73.3828 83.0674 77.1526 75.0153 75 72C73.606 70.0473 72.5513 69.7051 70.5 69.5C65.5 69 64 68.7998 60.5 68.7998C58 68.7998 53.6931 68.5362 50 68.4998C46 68.4603 42.5978 68.3703 39 68.4998C36.0991 68.6042 33.5 68.5 30 68.9998C27.6426 69.3364 25.2578 69.6266 23.8828 72.0675C22.1157 75.2044 23.3829 76.5683 24.3828 82.0683M92 49.5C92 72.9721 72.9721 92 49.5 92C26.0279 92 7 72.9721 7 49.5C7 26.0279 26.0279 7 49.5 7C72.9721 7 92 26.0279 92 49.5ZM66.5 41C66.5 50.3888 58.8888 58 49.5 58C40.1112 58 32.5 50.3888 32.5 41C32.5 31.6112 40.1112 24 49.5 24C58.8888 24 66.5 31.6112 66.5 41Z" stroke="#FF3E00" stroke-width="3"/>
</svg>
