<svg width="91" height="75" viewBox="0 0 91 75" fill="none" xmlns="http://www.w3.org/2000/svg">
<path d="M4.6875 28.125C3.4443 28.125 2.25201 27.6311 1.37294 26.7521C0.49386 25.873 0 24.6807 0 23.4375C0 22.1943 0.49386 21.002 1.37294 20.1229C2.25201 19.2439 3.4443 18.75 4.6875 18.75H42.1875C43.4307 18.75 44.623 18.2561 45.5021 17.3771C46.3811 16.498 46.875 15.3057 46.875 14.0625C46.875 12.8193 46.3811 11.627 45.5021 10.7479C44.623 9.86886 43.4307 9.375 42.1875 9.375C40.6781 9.41893 39.2432 10.0413 38.1797 11.1133C37.2904 11.924 36.1234 12.3616 34.9204 12.3356C33.7173 12.3096 32.5703 11.8219 31.7169 10.9735C30.8636 10.1251 30.3691 8.98107 30.336 7.77819C30.3029 6.57531 30.7336 5.40576 31.5391 4.51172C34.3656 1.67863 38.1859 0.0599733 42.1875 0C45.9171 0 49.494 1.48158 52.1312 4.11881C54.7684 6.75604 56.25 10.3329 56.25 14.0625C56.25 17.7921 54.7684 21.369 52.1312 24.0062C49.494 26.6434 45.9171 28.125 42.1875 28.125H4.6875ZM76.5625 14.0625C72.5555 14.1184 68.7289 15.7374 65.8984 18.5742C65.093 19.4683 64.6623 20.6378 64.6954 21.8407C64.7285 23.0436 65.2229 24.1876 66.0763 25.036C66.9297 25.8844 68.0767 26.3721 69.2797 26.3981C70.4828 26.4241 71.6498 25.9865 72.5391 25.1758C73.6065 24.1001 75.0476 23.4774 76.5625 23.4375C77.8057 23.4375 78.998 23.9314 79.8771 24.8104C80.7561 25.6895 81.25 26.8818 81.25 28.125C81.25 29.3682 80.7561 30.5605 79.8771 31.4396C78.998 32.3186 77.8057 32.8125 76.5625 32.8125H7.8125C6.5693 32.8125 5.37701 33.3064 4.49794 34.1854C3.61886 35.0645 3.125 36.2568 3.125 37.5C3.125 38.7432 3.61886 39.9355 4.49794 40.8146C5.37701 41.6936 6.5693 42.1875 7.8125 42.1875H76.5625C80.2921 42.1875 83.869 40.7059 86.5062 38.0687C89.1434 35.4315 90.625 31.8546 90.625 28.125C90.625 24.3954 89.1434 20.8185 86.5062 18.1813C83.869 15.5441 80.2921 14.0625 76.5625 14.0625ZM54.6875 46.875H10.9375C9.6943 46.875 8.50201 47.3689 7.62294 48.2479C6.74386 49.127 6.25 50.3193 6.25 51.5625C6.25 52.8057 6.74386 53.998 7.62294 54.8771C8.50201 55.7561 9.6943 56.25 10.9375 56.25H54.6875C55.9307 56.25 57.123 56.7439 58.0021 57.6229C58.8811 58.502 59.375 59.6943 59.375 60.9375C59.375 62.1807 58.8811 63.373 58.0021 64.2521C57.123 65.1311 55.9307 65.625 54.6875 65.625C53.177 65.5805 51.7412 64.9583 50.6758 63.8867C50.2508 63.415 49.7344 63.0345 49.1579 62.7683C48.5814 62.5022 47.9568 62.3559 47.3221 62.3385C46.6874 62.321 46.0557 62.4327 45.4655 62.6667C44.8752 62.9007 44.3387 63.2522 43.8884 63.6999C43.438 64.1475 43.0834 64.682 42.8459 65.2709C42.6084 65.8597 42.493 66.4907 42.5067 67.1255C42.5204 67.7604 42.663 68.3858 42.9257 68.9638C43.1885 69.5419 43.5659 70.0605 44.0352 70.4883C46.8627 73.3223 50.6846 74.941 54.6875 75C58.4171 75 61.994 73.5184 64.6312 70.8812C67.2684 68.244 68.75 64.6671 68.75 60.9375C68.75 57.2079 67.2684 53.631 64.6312 50.9938C61.994 48.3566 58.4171 46.875 54.6875 46.875Z" fill="#FF3E00"/>
</svg>
