<svg width="42" height="84" viewBox="0 0 42 84" fill="none" xmlns="http://www.w3.org/2000/svg">
<path d="M33.3333 45.8333V12.5C33.3333 9.18479 32.0164 6.00537 29.6722 3.66117C27.328 1.31696 24.1485 0 20.8333 0C17.5181 0 14.3387 1.31696 11.9945 3.66117C9.65029 6.00537 8.33333 9.18479 8.33333 12.5V45.8333C4.83529 48.4569 2.25139 52.1145 0.947634 56.2882C-0.356119 60.4618 -0.313624 64.9399 1.0691 69.0881C2.45182 73.2362 5.10467 76.8442 8.65187 79.4009C12.1991 81.9576 16.4608 83.3333 20.8333 83.3333C25.2059 83.3333 29.4676 81.9576 33.0148 79.4009C36.562 76.8442 39.2148 73.2362 40.5976 69.0881C41.9803 64.9399 42.0228 60.4618 40.719 56.2882C39.4153 52.1145 36.8314 48.4569 33.3333 45.8333ZM20.8333 8.33333C21.9384 8.33333 22.9982 8.77232 23.7796 9.55372C24.561 10.3351 25 11.3949 25 12.5V25H16.6667V12.5C16.6667 11.3949 17.1057 10.3351 17.8871 9.55372C18.6685 8.77232 19.7283 8.33333 20.8333 8.33333Z" fill="#FF3E00"/>
</svg>
