<svg width="92" height="63" viewBox="0 0 92 63" fill="none" xmlns="http://www.w3.org/2000/svg">
<path d="M45.8333 18.75C42.5181 18.75 39.3387 20.067 36.9945 22.4112C34.6503 24.7554 33.3333 27.9348 33.3333 31.25C33.3333 34.5652 34.6503 37.7446 36.9945 40.0888C39.3387 42.433 42.5181 43.75 45.8333 43.75C49.1485 43.75 52.328 42.433 54.6722 40.0888C57.0164 37.7446 58.3333 34.5652 58.3333 31.25C58.3333 27.9348 57.0164 24.7554 54.6722 22.4112C52.328 20.067 49.1485 18.75 45.8333 18.75ZM45.8333 52.0833C40.308 52.0833 35.0089 49.8884 31.1019 45.9814C27.1949 42.0744 25 36.7753 25 31.25C25 25.7247 27.1949 20.4256 31.1019 16.5186C35.0089 12.6116 40.308 10.4167 45.8333 10.4167C51.3587 10.4167 56.6577 12.6116 60.5647 16.5186C64.4717 20.4256 66.6667 25.7247 66.6667 31.25C66.6667 36.7753 64.4717 42.0744 60.5647 45.9814C56.6577 49.8884 51.3587 52.0833 45.8333 52.0833ZM45.8333 0C25 0 7.20833 12.9583 0 31.25C7.20833 49.5417 25 62.5 45.8333 62.5C66.6667 62.5 84.4583 49.5417 91.6667 31.25C84.4583 12.9583 66.6667 0 45.8333 0Z" fill="#FF3E00"/>
</svg>
