<svg width="80" height="60" viewBox="0 0 80 60" fill="none" xmlns="http://www.w3.org/2000/svg">
<path d="M45.0039 15C57.3289 15 64.3189 22.87 65.3339 32.37H65.6439C73.5739 32.37 80.0039 38.555 80.0039 46.185C80.0039 53.815 73.5739 60 65.6439 60H24.3639C16.4339 60 10.0039 53.815 10.0039 46.185C10.0039 38.555 16.4339 32.37 24.3639 32.37H24.6739C25.6989 22.805 32.6789 15 45.0039 15ZM31.9639 1.74278e-07C39.2439 1.74278e-07 45.5939 4.14 48.7289 10.225C47.493 10.0735 46.249 9.99833 45.0039 10C33.0539 10 24.3439 16.535 21.2339 26.43L20.9239 27.5L20.6939 28.435L19.8689 28.585C16.8494 29.2 14.0291 30.5529 11.6596 32.5228C9.29006 34.4928 7.44496 37.0186 6.2889 39.875C3.90694 38.4238 2.04992 36.2507 0.987772 33.6716C-0.0743767 31.0925 -0.286285 28.2419 0.38285 25.5342C1.05199 22.8264 2.56729 20.4026 4.70848 18.6151C6.84967 16.8277 9.50515 15.7697 12.2889 15.595L13.3989 15.57C14.1699 11.2066 16.4534 7.25436 19.8484 4.40704C23.2434 1.55973 27.5329 -0.00060208 31.9639 1.74278e-07Z" fill="#FF3E00"/>
</svg>
