<svg width="87" height="92" viewBox="0 0 87 92" fill="none" xmlns="http://www.w3.org/2000/svg">
<path d="M36.0833 20.8333C47.5833 20.8333 56.9167 30.1667 56.9167 41.6667C56.9167 53.1667 47.5833 62.5 36.0833 62.5C24.5833 62.5 15.25 53.1667 15.25 41.6667C15.25 30.1667 24.5833 20.8333 36.0833 20.8333ZM36.0833 0L46.0417 14.25C42.9583 13.125 39.5833 12.5 36.0833 12.5C32.5833 12.5 29.2083 13.125 26.125 14.25L36.0833 0ZM0 20.8333L17.3333 19.375C14.7473 21.5593 12.5496 24.1656 10.8333 27.0833C9 30.1667 7.95833 33.3333 7.375 36.625L0 20.8333ZM0.0833333 62.5L7.41667 46.7917C8.64149 53.5105 12.1435 59.6022 17.3333 64.0417L0.0833333 62.5ZM72.125 20.8333L64.75 36.625C63.57 29.8782 60.0607 23.759 54.8333 19.3333L72.125 20.8333ZM86.0833 50H77.75C77.75 58.5417 74.5 67.0833 68 73.5833C64.9083 76.6862 61.2322 79.1454 57.1843 80.8189C53.1363 82.4924 48.7969 83.347 44.4167 83.3333V91.6667C55.0833 91.6667 65.75 87.5 73.875 79.4583C82 71.4167 86.0833 60.6667 86.0833 50ZM69.4167 50H61.0833C61.0833 54.1667 59.4583 58.5417 56.2083 61.7917C52.9583 65.0417 48.5833 66.6667 44.4167 66.6667V75C47.7014 75.006 50.955 74.3635 53.9909 73.1093C57.0268 71.8551 59.7851 70.0138 62.1078 67.6911C64.4305 65.3685 66.2717 62.6101 67.5259 59.5742C68.7802 56.5384 69.4227 53.2847 69.4167 50Z" fill="#FF3E00"/>
</svg>
